<svg xmlns="http://www.w3.org/2000/svg" viewBox="0 0 100 29.15"><defs><style>.cls-1,.cls-2{fill:#fff;}.cls-2{fill-rule:evenodd;}</style></defs><title>IEEELogo</title><g id="Layer_2" data-name="Layer 2"><g id="IEEE_Master_Brand" data-name="IEEE Master Brand"><polygon class="cls-1" points="33.35 25.94 33.35 3.86 39.47 3.86 39.47 25.94 33.35 25.94 33.35 25.94"/><polygon class="cls-1" points="42.68 25.94 42.68 3.86 59.5 3.86 59.5 8.14 48.8 8.14 48.8 12.7 58.64 12.7 58.64 16.98 48.8 16.98 48.8 21.66 59.5 21.66 59.5 25.94 42.68 25.94 42.68 25.94"/><polygon class="cls-1" points="62.93 25.94 62.93 3.86 79.75 3.86 79.75 8.14 69.05 8.14 69.05 12.7 78.89 12.7 78.89 16.98 69.05 16.98 69.05 21.66 79.75 21.66 79.75 25.94 62.93 25.94 62.93 25.94"/><polygon class="cls-1" points="83.17 25.94 83.17 3.86 100 3.86 100 8.14 89.3 8.14 89.3 12.7 99.14 12.7 99.14 16.98 89.3 16.98 89.3 21.66 100 21.66 100 25.94 83.17 25.94 83.17 25.94"/><path class="cls-1" d="M13.73,4.11c1-.76,2.2-.13,3,.57a29.35,29.35,0,0,1,2.54,2.16l.14.08a42.25,42.25,0,0,1,5.86,6.63A1.73,1.73,0,0,1,25.65,15,15.41,15.41,0,0,1,23,18.68,44.93,44.93,0,0,1,16.1,25a1.87,1.87,0,0,1-1.8.41,26.77,26.77,0,0,1-5-4,34.73,34.73,0,0,1-5.18-5.89,1.73,1.73,0,0,1-.26-1.06,5.61,5.61,0,0,1,1.16-2,48.31,48.31,0,0,1,5.82-6,1.48,1.48,0,0,1,.21-.2c.89-.77,1.78-1.46,2.72-2.13Zm2.86-2.23L15.48.31A2.06,2.06,0,0,0,15,.05a1,1,0,0,0-.94.23l-2,2.6A53.79,53.79,0,0,1,.95,13.4c-.33.26-.81.51-.92.93a.93.93,0,0,0,.32.93,54.41,54.41,0,0,1,9.31,8.09c.5.53.91,1,1.4,1.54.83,1.1,1.79,2.2,2.55,3.38.24.25.28.66.65.78a1.12,1.12,0,0,0,.93,0l.28-.28A55.28,55.28,0,0,1,28.11,16c.49-.43,1.42-.6,1.43-1.4a1.28,1.28,0,0,0-.57-.94h-.08a49.05,49.05,0,0,1-7-5.81L19.43,5.32c-1-1.09-1.94-2.3-2.85-3.45ZM14.08,4.7c1-.68,1.89.27,2.66.81a40.32,40.32,0,0,1,8,8.27,1.52,1.52,0,0,1,.15,1.48,22.37,22.37,0,0,1-2,2.64v0a53.79,53.79,0,0,1-5.68,5.44c-1,.6-1.9,1.92-3.17,1.1A45.86,45.86,0,0,1,6,16.9a11.55,11.55,0,0,1-1.3-1.84c-.39-1,.47-1.64,1-2.36a42.34,42.34,0,0,1,8.48-8Zm.63,2-.27.87L13.09,11.4c.34,0,.76,0,1.09,0v0L14,15.86l0,0a5.73,5.73,0,0,0,1.42,0v-.07l-.18-4.26,0-.14,1.19,0c-.6-1.57-1.17-3.16-1.73-4.75ZM10.1,12.74c-.76.38-1.88,1-1.76,2a2.22,2.22,0,0,0,1.27,1.17,13.75,13.75,0,0,0,9.12.34c.7-.27,1.65-.66,1.78-1.53s-.76-1.16-1.3-1.43v0a2.41,2.41,0,0,1,.6-.16v0c-1-.17-1.87-.42-2.8-.66.18.4.31.83.45,1.25a5,5,0,0,1,.86-.2c.49.19,1.18.46,1.25,1.07s-.57.85-1,1.08a11.16,11.16,0,0,1-6.61.26c-.6-.19-1.47-.43-1.55-1.2.43-1,1.53-1.22,2.45-1.46-.47-.31-1-.58-1.42-.92a4.13,4.13,0,0,0-1.4.44ZM14,17.12c-.08,1.56-.1,3-.22,4.57a8.55,8.55,0,0,0,2,0l-.2-4.36,0-.21a10.46,10.46,0,0,1-1.52,0Z"/><path class="cls-2" d="M19.71,26a1,1,0,1,0,1,1A1,1,0,0,0,19.71,26Zm0,1.82h0a.79.79,0,1,1,.74-.79A.75.75,0,0,1,19.71,27.85Zm.46-1c0-.25-.17-.33-.45-.33h-.41v1.1h.24v-.46h.11l.25.46h.28l-.28-.48A.26.26,0,0,0,20.17,26.84Zm-.42.12h-.21V26.7h.17c.09,0,.21,0,.21.12S19.86,27,19.75,27Z"/></g></g></svg>